<svg width="62" height="41" viewBox="0 0 62 41" fill="none" xmlns="http://www.w3.org/2000/svg">
<path d="M0 0V29.3974H11.3195C11.6806 29.3974 12.0191 29.3674 12.3652 29.3478V24.0144C12.0266 24.043 11.6821 24.0641 11.3195 24.0641H5.39311V5.24911H11.321C11.6821 5.24911 12.0296 5.26867 12.3667 5.29726V0.0481432C12.0206 0.028585 11.6821 0 11.321 0H0Z" fill="url(#paint0_linear_402_4935)"/>
<path d="M12.8656 0.00756836V5.25668C18.3695 5.74112 20.717 10.0514 20.8339 14.3633C20.9507 18.8872 18.6392 23.4774 12.8656 23.9724V29.3057C22.2001 28.7957 26.3454 21.5727 26.227 14.4039C26.1072 7.40507 21.9994 0.504045 12.8656 0.00756836Z" fill="#FBB040"/>
<path d="M26.1371 4.88357H17.1546V0.00756836H40.4588V4.88357H31.4778V29.3072H26.1356V4.88357H26.1371Z" fill="url(#paint1_linear_402_4935)"/>
<path d="M35.2769 29.235V29.3974H41.2647L48.508 18.7112L55.7497 29.3974H61.7376V29.235L51.8652 15.0147L61.8589 0.243725V0H55.9924" fill="url(#paint2_linear_402_4935)"/>
<path d="M41.7711 0H35.9046V0.243725L45.4534 14.0593L48.4465 9.99874L41.7711 0Z" fill="url(#paint3_linear_402_4935)"/>
<path d="M48.568 39.2261L55.982 38.0466C40.733 26.5043 11.336 26.8458 4.3984 40.9999C11.1518 30.5152 35.7024 32.2484 48.568 39.2246V39.2261Z" fill="url(#paint4_linear_402_4935)"/>
<defs>
<linearGradient id="paint0_linear_402_4935" x1="0" y1="14.6987" x2="12.3652" y2="14.6987" gradientUnits="userSpaceOnUse">
<stop stop-color="#F04E23"/>
<stop offset="0.39" stop-color="#F37021"/>
<stop offset="1" stop-color="#FBB040"/>
</linearGradient>
<linearGradient id="paint1_linear_402_4935" x1="17.1546" y1="14.6566" x2="40.4603" y2="14.6566" gradientUnits="userSpaceOnUse">
<stop stop-color="#F04E23"/>
<stop offset="0.39" stop-color="#F37021"/>
<stop offset="1" stop-color="#FBB040"/>
</linearGradient>
<linearGradient id="paint2_linear_402_4935" x1="35.2769" y1="14.6987" x2="61.8589" y2="14.6987" gradientUnits="userSpaceOnUse">
<stop stop-color="#B1DED3"/>
<stop offset="0.44" stop-color="#00B3B5"/>
<stop offset="1" stop-color="#007B8D"/>
</linearGradient>
<linearGradient id="paint3_linear_402_4935" x1="35.9046" y1="7.02891" x2="48.4465" y2="7.02891" gradientUnits="userSpaceOnUse">
<stop stop-color="#B1DED3"/>
<stop offset="0.44" stop-color="#00B3B5"/>
<stop offset="1" stop-color="#007B8D"/>
</linearGradient>
<linearGradient id="paint4_linear_402_4935" x1="45.7786" y1="51.1724" x2="13.9884" y2="27.3359" gradientUnits="userSpaceOnUse">
<stop stop-color="#B1DED3"/>
<stop offset="0.44" stop-color="#00B3B5"/>
<stop offset="1" stop-color="#007B8D"/>
</linearGradient>
</defs>
</svg>
