<svg width="21" height="20" viewBox="0 0 21 20" fill="none" xmlns="http://www.w3.org/2000/svg">
<path d="M19.6566 9.99996H11.5123C11.2711 9.99996 11.0398 9.90409 10.8693 9.73343C10.6987 9.56277 10.6029 9.33131 10.6029 9.08996V0.919964C10.6045 0.657608 10.494 0.407068 10.2993 0.231347C10.1046 0.055626 9.84424 -0.0285581 9.58362 -3.60217e-05C4.36719 0.55425 0.467002 5.05048 0.651942 10.2966C0.836882 15.5427 5.04399 19.7528 10.2865 19.9378C15.529 20.1229 20.0221 16.22 20.576 11C20.5985 10.7424 20.5116 10.4873 20.3367 10.2971C20.1618 10.1068 19.915 9.99898 19.6566 9.99996Z" fill="white"/>
</svg>
