<svg width="20" height="20" viewBox="0 0 20 20" fill="none" xmlns="http://www.w3.org/2000/svg">
<path fill-rule="evenodd" clip-rule="evenodd" d="M1.66666 4.16675C1.66666 2.78604 2.78594 1.66675 4.16666 1.66675H15.8333C17.214 1.66675 18.3333 2.78604 18.3333 4.16675V15.8334C18.3333 17.2141 17.214 18.3334 15.8333 18.3334H4.16666C2.78594 18.3334 1.66666 17.2141 1.66666 15.8334V4.16675Z" fill="#2C73EB"/>
<path fill-rule="evenodd" clip-rule="evenodd" d="M14.0952 6.91089C14.4206 7.23633 14.4206 7.76396 14.0952 8.0894L8.92259 13.5061C8.59715 13.8315 8.06951 13.8315 7.74408 13.5061L5.24408 11.0061C4.91864 10.6806 4.91864 10.153 5.24408 9.82756C5.56951 9.50212 6.09715 9.50212 6.42259 9.82756L8.33333 11.7383L12.9167 6.91089C13.2421 6.58545 13.7697 6.58545 14.0952 6.91089Z" fill="white"/>
</svg>
