<svg width="18" height="12" viewBox="0 0 18 12" fill="none" xmlns="http://www.w3.org/2000/svg">
<path fill-rule="evenodd" clip-rule="evenodd" d="M16.3858 0.833374H15.3763C14.8188 0.833374 14.3669 1.28532 14.3669 1.84282V10.5914C14.3669 11.1489 14.8188 11.6008 15.3763 11.6008H16.3858C16.9433 11.6008 17.3952 11.1489 17.3952 10.5914V1.84282C17.3952 1.28532 16.9433 0.833374 16.3858 0.833374ZM10.6658 3.18892H11.6752C12.2327 3.18892 12.6846 3.64086 12.6846 4.19837V10.5915C12.6846 11.149 12.2327 11.601 11.6752 11.601H10.6658C10.1082 11.601 9.6563 11.149 9.6563 10.5915V4.19837C9.6563 3.64086 10.1082 3.18892 10.6658 3.18892ZM6.96411 5.54397H5.95466C5.39716 5.54397 4.94522 5.99592 4.94522 6.55342V10.5912C4.94522 11.1487 5.39716 11.6007 5.95466 11.6007H6.96411C7.52162 11.6007 7.97356 11.1487 7.97356 10.5912V6.55342C7.97356 5.99592 7.52162 5.54397 6.96411 5.54397ZM2.25352 7.56287H1.24407C0.686565 7.56287 0.234619 8.01481 0.234619 8.57232V10.5912C0.234619 11.1487 0.686565 11.6007 1.24407 11.6007H2.25352C2.81102 11.6007 3.26297 11.1487 3.26297 10.5912V8.57232C3.26297 8.01481 2.81102 7.56287 2.25352 7.56287Z" fill="white"/>
</svg>
