<svg width="18" height="12" viewBox="0 0 18 12" fill="none" xmlns="http://www.w3.org/2000/svg">
<path fill-rule="evenodd" clip-rule="evenodd" d="M16.3858 0.833359H15.3763C14.8188 0.833359 14.3669 1.2853 14.3669 1.84281V10.5914C14.3669 11.1489 14.8188 11.6008 15.3763 11.6008H16.3858C16.9433 11.6008 17.3952 11.1489 17.3952 10.5914V1.84281C17.3952 1.2853 16.9433 0.833359 16.3858 0.833359ZM10.6658 3.1889H11.6752C12.2327 3.1889 12.6846 3.64085 12.6846 4.19835V10.5915C12.6846 11.149 12.2327 11.601 11.6752 11.601H10.6658C10.1082 11.601 9.6563 11.149 9.6563 10.5915V4.19835C9.6563 3.64085 10.1082 3.1889 10.6658 3.1889ZM6.96411 5.54395H5.95466C5.39716 5.54395 4.94522 5.9959 4.94522 6.5534V10.5912C4.94522 11.1487 5.39716 11.6006 5.95466 11.6006H6.96411C7.52162 11.6006 7.97356 11.1487 7.97356 10.5912V6.5534C7.97356 5.9959 7.52162 5.54395 6.96411 5.54395ZM2.25352 7.56285H1.24407C0.686565 7.56285 0.234619 8.0148 0.234619 8.5723V10.5912C0.234619 11.1487 0.686565 11.6006 1.24407 11.6006H2.25352C2.81102 11.6006 3.26297 11.1487 3.26297 10.5912V8.5723C3.26297 8.0148 2.81102 7.56285 2.25352 7.56285Z" fill="white"/>
</svg>
