<svg width="18" height="18" viewBox="0 0 18 18" fill="none" xmlns="http://www.w3.org/2000/svg">
<g clip-path="url(#clip0_413_16284)">
<path d="M13.81 0H4.19C1.87593 0 0 1.87593 0 4.19V13.81C0 16.1241 1.87593 18 4.19 18H13.81C16.1241 18 18 16.1241 18 13.81V4.19C18 1.87593 16.1241 0 13.81 0Z" fill="url(#paint0_linear_413_16284)"/>
<path d="M2.02002 4.70996V11.67H4.71002C4.80002 11.67 4.88002 11.67 4.96002 11.66V10.4C4.88002 10.4 4.80002 10.41 4.71002 10.41H3.30002V5.94996H4.71002C4.80002 5.94996 4.88002 5.94996 4.96002 5.95996V4.71996C4.88002 4.71996 4.80002 4.70996 4.71002 4.70996H2.02002Z" fill="white"/>
<path d="M5.07007 4.70996V5.94996C6.38007 6.05996 6.94007 7.08996 6.96007 8.10996C6.99007 9.17996 6.44007 10.27 5.07007 10.39V11.65C7.29007 11.53 8.28007 9.81996 8.25007 8.11996C8.22007 6.45996 7.24007 4.82996 5.07007 4.70996Z" fill="white"/>
<path d="M8.22997 5.86997H6.08997V4.71997H11.63V5.86997H9.48997V11.65H8.21997V5.86997H8.22997Z" fill="white"/>
<path d="M10.4 11.63V11.67H11.83L13.55 9.13996L15.27 11.67H16.7V11.63L14.35 8.26996L16.73 4.76996V4.70996H15.33" fill="white"/>
<path d="M11.95 4.70996H10.55V4.76996L12.82 8.03996L13.54 7.07996L11.95 4.70996Z" fill="white"/>
<path d="M13.5701 13.9999L15.3301 13.7199C11.7001 10.9899 4.71006 11.0699 3.06006 14.4199C4.67006 11.9399 10.5001 12.3499 13.5601 13.9999H13.5701Z" fill="white"/>
</g>
<defs>
<linearGradient id="paint0_linear_413_16284" x1="0" y1="9" x2="18" y2="9" gradientUnits="userSpaceOnUse">
<stop stop-color="#F04F24"/>
<stop offset="0.39" stop-color="#F37024"/>
<stop offset="1" stop-color="#FBB042"/>
</linearGradient>
<clipPath id="clip0_413_16284">
<rect width="18" height="18" fill="white"/>
</clipPath>
</defs>
</svg>
