<svg width="21" height="20" viewBox="0 0 21 20" fill="none" xmlns="http://www.w3.org/2000/svg">
<path d="M19.2507 9.99996H11.1063C10.8652 9.99996 10.6339 9.90409 10.4633 9.73343C10.2928 9.56277 10.197 9.33131 10.197 9.08996V0.919964C10.1985 0.657608 10.0881 0.407068 9.89338 0.231347C9.6987 0.055626 9.4383 -0.0285581 9.17767 -3.60217e-05C3.96124 0.55425 0.0610568 5.05048 0.245997 10.2966C0.430937 15.5427 4.63804 19.7528 9.88054 19.9378C15.123 20.1229 19.6161 16.22 20.17 11C20.1925 10.7424 20.1057 10.4873 19.9307 10.2971C19.7558 10.1068 19.509 9.99898 19.2507 9.99996Z" fill="white"/>
</svg>
