<svg width="21" height="20" viewBox="0 0 21 20" fill="none" xmlns="http://www.w3.org/2000/svg">
<path d="M19.8611 10.0001H11.7167C11.4756 10.0001 11.2443 9.90421 11.0737 9.73355C10.9032 9.56289 10.8074 9.33143 10.8074 9.09009V0.920086C10.8089 0.65773 10.6985 0.40719 10.5038 0.231469C10.3091 0.0557481 10.0487 -0.028436 9.78809 8.60486e-05C4.57166 0.554372 0.671469 5.0506 0.85641 10.2967C1.04135 15.5429 5.24846 19.7529 10.491 19.938C15.7334 20.123 20.2266 16.2201 20.7805 11.0001C20.8029 10.7425 20.7161 10.4874 20.5412 10.2972C20.3663 10.1069 20.1194 9.99911 19.8611 10.0001Z" fill="white"/>
</svg>
