<svg width="21" height="20" viewBox="0 0 21 20" fill="none" xmlns="http://www.w3.org/2000/svg">
<path d="M19.4519 9.99996H11.3076C11.0664 9.99996 10.8351 9.90409 10.6645 9.73343C10.494 9.56277 10.3982 9.33131 10.3982 9.08996V0.919964C10.3998 0.657608 10.2893 0.407068 10.0946 0.231347C9.89993 0.055626 9.63953 -0.0285581 9.37891 -3.60217e-05C4.16248 0.55425 0.26229 5.05048 0.44723 10.2966C0.63217 15.5427 4.83928 19.7528 10.0818 19.9378C15.3243 20.1229 19.8174 16.22 20.3713 11C20.3937 10.7424 20.3069 10.4873 20.132 10.2971C19.9571 10.1068 19.7102 9.99898 19.4519 9.99996Z" fill="white"/>
</svg>
