<svg width="21" height="20" viewBox="0 0 21 20" fill="none" xmlns="http://www.w3.org/2000/svg">
<path d="M19.8613 9.99996H11.717C11.4758 9.99996 11.2445 9.90409 11.074 9.73343C10.9034 9.56277 10.8076 9.33131 10.8076 9.08996V0.919964C10.8092 0.657608 10.6987 0.407068 10.504 0.231347C10.3094 0.055626 10.049 -0.0285581 9.78833 -3.60217e-05C4.5719 0.55425 0.671714 5.05048 0.856654 10.2966C1.04159 15.5427 5.2487 19.7528 10.4912 19.9378C15.7337 20.1229 20.2268 16.22 20.7807 11C20.8032 10.7424 20.7163 10.4873 20.5414 10.2971C20.3665 10.1068 20.1197 9.99898 19.8613 9.99996Z" fill="white"/>
</svg>
