<svg width="20" height="20" viewBox="0 0 20 20" fill="none" xmlns="http://www.w3.org/2000/svg">
<path fill-rule="evenodd" clip-rule="evenodd" d="M1.6665 4.16663C1.6665 2.78591 2.78579 1.66663 4.1665 1.66663H15.8332C17.2139 1.66663 18.3332 2.78591 18.3332 4.16663V15.8333C18.3332 17.214 17.2139 18.3333 15.8332 18.3333H4.1665C2.78579 18.3333 1.6665 17.214 1.6665 15.8333V4.16663Z" fill="#2C73EB"/>
<path fill-rule="evenodd" clip-rule="evenodd" d="M14.0952 6.91077C14.4206 7.2362 14.4206 7.76384 14.0952 8.08928L8.92259 13.5059C8.59715 13.8314 8.06951 13.8314 7.74408 13.5059L5.24408 11.0059C4.91864 10.6805 4.91864 10.1529 5.24408 9.82743C5.56951 9.502 6.09715 9.502 6.42259 9.82743L8.33333 11.7382L12.9167 6.91077C13.2421 6.58533 13.7697 6.58533 14.0952 6.91077Z" fill="white"/>
</svg>
