<svg width="129" height="86" viewBox="0 0 129 86" fill="none" xmlns="http://www.w3.org/2000/svg">
<g clip-path="url(#clip0_226_1538)">
<path d="M0 0V61.663H23.6056C24.3585 61.663 25.0646 61.5999 25.7863 61.5589V50.3718C25.0802 50.4317 24.3617 50.4759 23.6056 50.4759H11.2467V11.0103H23.6088C24.3617 11.0103 25.0865 11.0514 25.7894 11.1113V0.100983C25.0677 0.0599589 24.3617 0 23.6088 0H0Z" fill="white"/>
<path d="M26.8296 0.0157471V11.0261C38.3075 12.0422 43.203 21.0834 43.4466 30.1277C43.6903 39.617 38.8698 49.2452 26.8296 50.2834V61.4705C46.2958 60.4007 54.9402 45.25 54.6934 30.2129C54.4434 15.5325 45.8772 1.05714 26.8296 0.0157471Z" fill="white"/>
<path d="M54.506 10.2435H35.7739V0.0157471H84.3723V10.2435H65.6434V61.4736H54.5029V10.2435H54.506Z" fill="white"/>
<path d="M73.5662 61.3222V61.663H86.0532L101.158 39.2478L116.26 61.663H128.747V61.3222L108.159 31.4942L129 0.511229V0H116.766" fill="white"/>
<path d="M87.1092 0H74.8752V0.511229L94.7882 29.4903L101.03 20.973L87.1092 0Z" fill="white"/>
<path d="M101.283 82.2794L116.744 79.8053C84.9441 55.5945 23.64 56.3108 9.17236 86C23.2558 64.0077 74.4534 67.6431 101.283 82.2762V82.2794Z" fill="white"/>
</g>
<defs>
<clipPath id="clip0_226_1538">
<rect width="129" height="86" fill="white"/>
</clipPath>
</defs>
</svg>
