<svg width="16" height="12" viewBox="0 0 16 12" fill="none" xmlns="http://www.w3.org/2000/svg">
<path fill-rule="evenodd" clip-rule="evenodd" d="M8.1819 2.80057C10.4276 2.80067 12.5875 3.66285 14.2151 5.20891C14.3377 5.32827 14.5336 5.32677 14.6543 5.20554L15.8259 4.02415C15.887 3.96266 15.9211 3.87937 15.9206 3.79271C15.92 3.70605 15.885 3.62317 15.8232 3.5624C11.5513 -0.528123 4.81185 -0.528123 0.539953 3.5624C0.478071 3.62312 0.44296 3.70598 0.44239 3.79264C0.441819 3.8793 0.475836 3.96262 0.536912 4.02415L1.70883 5.20554C1.82946 5.32695 2.02551 5.32846 2.148 5.20891C3.7758 3.66275 5.93592 2.80056 8.1819 2.80057ZM8.18182 6.64433C9.41571 6.64426 10.6056 7.1025 11.5202 7.93002C11.6439 8.04746 11.8388 8.04492 11.9594 7.92428L13.1296 6.74289C13.1912 6.68093 13.2254 6.59686 13.2245 6.50951C13.2236 6.42216 13.1878 6.3388 13.1249 6.2781C10.3396 3.68946 6.02636 3.68946 3.24112 6.2781C3.17821 6.3388 3.14232 6.4222 3.14149 6.50958C3.14066 6.59696 3.17498 6.68102 3.23673 6.74289L4.40662 7.92428C4.52721 8.04492 4.72209 8.04746 4.84579 7.93002C5.75982 7.10304 6.94874 6.64484 8.18182 6.64433ZM10.5262 9.23041C10.528 9.31801 10.4935 9.40246 10.4309 9.46383L8.40667 11.5049C8.34733 11.5649 8.26643 11.5987 8.18202 11.5987C8.0976 11.5987 8.0167 11.5649 7.95736 11.5049L5.93278 9.46383C5.87023 9.40242 5.83583 9.31794 5.83768 9.23034C5.83954 9.14274 5.87749 9.05979 5.94257 9.00107C7.23533 7.90857 9.1287 7.90857 10.4215 9.00107C10.4865 9.05983 10.5244 9.14281 10.5262 9.23041Z" fill="white"/>
</svg>
