<svg width="16" height="12" viewBox="0 0 16 12" fill="none" xmlns="http://www.w3.org/2000/svg">
<path fill-rule="evenodd" clip-rule="evenodd" d="M8.1819 2.80055C10.4276 2.80065 12.5875 3.66283 14.2151 5.2089C14.3377 5.32826 14.5336 5.32675 14.6543 5.20552L15.8259 4.02413C15.887 3.96265 15.9211 3.87936 15.9206 3.7927C15.92 3.70604 15.885 3.62315 15.8232 3.56238C11.5513 -0.528138 4.81185 -0.528138 0.539953 3.56238C0.478071 3.62311 0.44296 3.70597 0.44239 3.79263C0.441819 3.87929 0.475836 3.9626 0.536912 4.02413L1.70883 5.20552C1.82946 5.32694 2.02551 5.32844 2.148 5.2089C3.7758 3.66273 5.93592 2.80055 8.1819 2.80055ZM8.18182 6.64432C9.41571 6.64424 10.6056 7.10248 11.5202 7.93C11.6439 8.04745 11.8388 8.0449 11.9594 7.92427L13.1296 6.74288C13.1912 6.68091 13.2254 6.59685 13.2245 6.50949C13.2236 6.42214 13.1878 6.33879 13.1249 6.27809C10.3396 3.68945 6.02636 3.68945 3.24112 6.27809C3.17821 6.33879 3.14232 6.42218 3.14149 6.50956C3.14066 6.59694 3.17498 6.681 3.23673 6.74288L4.40662 7.92427C4.52721 8.0449 4.72209 8.04745 4.84579 7.93C5.75982 7.10303 6.94874 6.64483 8.18182 6.64432ZM10.5262 9.2304C10.528 9.31799 10.4935 9.40245 10.4309 9.46382L8.40667 11.5049C8.34733 11.5649 8.26643 11.5987 8.18202 11.5987C8.0976 11.5987 8.0167 11.5649 7.95736 11.5049L5.93278 9.46382C5.87023 9.4024 5.83583 9.31792 5.83768 9.23032C5.83954 9.14272 5.87749 9.05977 5.94257 9.00105C7.23533 7.90856 9.1287 7.90856 10.4215 9.00105C10.4865 9.05982 10.5244 9.1428 10.5262 9.2304Z" fill="white"/>
</svg>
